<svg width="182" height="50" viewBox="0 0 182 50" fill="none" xmlns="http://www.w3.org/2000/svg">
<path d="M0 49.3346V0.6654C5.61954 0.6654 10.1751 5.22094 10.1751 10.8405V40.8508H22.3234C27.0089 40.8508 30.8072 44.6491 30.8072 49.3346H0Z" fill="#E5218F"/>
<path d="M79.8967 25C79.8967 30.3074 78.9019 34.8226 76.9123 38.5456C74.9384 42.2687 72.2439 45.1125 68.8287 47.077C65.4291 49.0257 61.6066 50 57.3611 50C53.0843 50 49.2461 49.0177 45.8466 47.0532C42.4471 45.0887 39.7604 42.2449 37.7864 38.5219C35.8125 34.7988 34.8256 30.2915 34.8256 25C34.8256 19.6927 35.8125 15.1774 37.7864 11.4544C39.7604 7.73131 42.4471 4.89544 45.8466 2.94677C49.2461 0.982257 53.0843 0 57.3611 0C61.6066 0 65.4291 0.982257 68.8287 2.94677C72.2439 4.89544 74.9384 7.73131 76.9123 11.4544C78.9019 15.1774 79.8967 19.6927 79.8967 25ZM69.5806 25C69.5806 21.5621 69.0715 18.6629 68.0532 16.3023C67.0506 13.9417 65.6328 12.1515 63.7999 10.9316C61.9669 9.71166 59.8207 9.10171 57.3611 9.10171C54.9016 9.10171 52.7553 9.71166 50.9224 10.9316C49.0895 12.1515 47.6639 13.9417 46.6456 16.3023C45.643 18.6629 45.1416 21.5621 45.1416 25C45.1416 28.4379 45.643 31.3371 46.6456 33.6977C47.6639 36.0583 49.0895 37.8485 50.9224 39.0684C52.7553 40.2883 54.9016 40.8983 57.3611 40.8983C59.8207 40.8983 61.9669 40.2883 63.7999 39.0684C65.6328 37.8485 67.0506 36.0583 68.0532 33.6977C69.0715 31.3371 69.5806 28.4379 69.5806 25Z" fill="#E5218F"/>
<path d="M119.346 16.3973C119.017 15.2408 118.555 14.2189 117.959 13.3317C117.364 12.4287 116.635 11.6683 115.774 11.0504C114.928 10.4167 113.957 9.93346 112.86 9.60076C111.779 9.26806 110.581 9.10171 109.265 9.10171C106.805 9.10171 104.643 9.71958 102.779 10.9553C100.93 12.1911 99.489 13.9892 98.4551 16.3498C97.4211 18.6945 96.9041 21.5621 96.9041 24.9525C96.9041 28.3428 97.4133 31.2262 98.4316 33.6027C99.4499 35.9791 100.891 37.7931 102.755 39.0447C104.62 40.2804 106.821 40.8983 109.359 40.8983C111.662 40.8983 113.628 40.4864 115.257 39.6625C116.902 38.8229 118.155 37.6426 119.017 36.1217C119.894 34.6008 120.333 32.8026 120.333 30.7272L122.401 31.0361H109.993C109.993 26.7575 113.462 23.289 117.74 23.289H130.132V29.4202C130.132 33.6977 129.239 37.3733 127.453 40.4468C125.667 43.5044 123.207 45.865 120.074 47.5285C116.941 49.1762 113.353 50 109.312 50C104.8 50 100.836 48.994 97.4211 46.9819C94.0059 44.9541 91.3427 42.0786 89.4314 38.3555C87.5358 34.6166 86.5881 30.1806 86.5881 25.0475C86.5881 21.1027 87.152 17.5856 88.28 14.4962C89.4236 11.391 91.0216 8.76109 93.0738 6.60647C95.126 4.45184 97.5151 2.8121 100.241 1.68726C102.967 0.562421 105.92 0 109.1 0C111.826 0 114.364 0.403993 116.714 1.21198C119.064 2.00412 121.147 3.12896 122.965 4.5865C124.797 6.04404 126.294 7.77883 127.453 9.79087C129.317 13.001 126.379 16.3973 122.667 16.3973H119.346Z" fill="#E5218F"/>
<path d="M182 25C182 30.3074 181.005 34.8226 179.016 38.5456C177.042 42.2687 174.347 45.1125 170.932 47.077C167.532 49.0257 163.71 50 159.464 50C155.188 50 151.349 49.0177 147.95 47.0532C144.55 45.0887 141.864 42.2449 139.89 38.5219C137.916 34.7988 136.929 30.2915 136.929 25C136.929 19.6927 137.916 15.1774 139.89 11.4544C141.864 7.73131 144.55 4.89544 147.95 2.94677C151.349 0.982257 155.188 0 159.464 0C163.71 0 167.532 0.982257 170.932 2.94677C174.347 4.89544 177.042 7.73131 179.016 11.4544C181.005 15.1774 182 19.6927 182 25ZM171.684 25C171.684 21.5621 171.175 18.6629 170.156 16.3023C169.154 13.9417 167.736 12.1515 165.903 10.9316C164.07 9.71166 161.924 9.10171 159.464 9.10171C157.005 9.10171 154.859 9.71166 153.026 10.9316C151.193 12.1515 149.767 13.9417 148.749 16.3023C147.746 18.6629 147.245 21.5621 147.245 25C147.245 28.4379 147.746 31.3371 148.749 33.6977C149.767 36.0583 151.193 37.8485 153.026 39.0684C154.859 40.2883 157.005 40.8983 159.464 40.8983C161.924 40.8983 164.07 40.2883 165.903 39.0684C167.736 37.8485 169.154 36.0583 170.156 33.6977C171.175 31.3371 171.684 28.4379 171.684 25Z" fill="#E5218F"/>
</svg>
