<svg width="56" height="56" viewBox="0 0 56 56" fill="none" xmlns="http://www.w3.org/2000/svg">
<g filter="url(#filter0_d_1801_4330)">
<circle cx="28" cy="24" r="18" fill="#F2FFDC"/>
</g>
<path d="M27.7552 29.625C27.9052 29.475 27.9837 29.2841 27.9908 29.0523C27.9973 28.8205 27.9256 28.6296 27.7756 28.4796L23.7665 24.4705H34.5461C34.7779 24.4705 34.9723 24.392 35.1294 24.2349C35.286 24.0783 35.3643 23.8841 35.3643 23.6523C35.3643 23.4205 35.286 23.226 35.1294 23.069C34.9723 22.9124 34.7779 22.8341 34.5461 22.8341H23.7665L27.7756 18.825C27.9256 18.675 27.9973 18.4841 27.9908 18.2523C27.9837 18.0205 27.9052 17.8296 27.7552 17.6796C27.6052 17.5296 27.4143 17.4546 27.1824 17.4546C26.9506 17.4546 26.7597 17.5296 26.6097 17.6796L21.2097 23.0796C21.1279 23.1478 21.0698 23.2329 21.0354 23.3349C21.0016 23.4374 20.9847 23.5432 20.9847 23.6523C20.9847 23.7614 21.0016 23.8637 21.0354 23.9591C21.0698 24.0546 21.1279 24.1432 21.2097 24.225L26.6097 29.625C26.7597 29.775 26.9506 29.85 27.1824 29.85C27.4143 29.85 27.6052 29.775 27.7552 29.625Z" fill="#474A54"/>
<defs>
<filter id="filter0_d_1801_4330" x="0" y="0" width="56" height="56" filterUnits="userSpaceOnUse" color-interpolation-filters="sRGB">
<feFlood flood-opacity="0" result="BackgroundImageFix"/>
<feColorMatrix in="SourceAlpha" type="matrix" values="0 0 0 0 0 0 0 0 0 0 0 0 0 0 0 0 0 0 127 0" result="hardAlpha"/>
<feOffset dy="4"/>
<feGaussianBlur stdDeviation="5"/>
<feComposite in2="hardAlpha" operator="out"/>
<feColorMatrix type="matrix" values="0 0 0 0 0 0 0 0 0 0 0 0 0 0 0 0 0 0 0.1 0"/>
<feBlend mode="normal" in2="BackgroundImageFix" result="effect1_dropShadow_1801_4330"/>
<feBlend mode="normal" in="SourceGraphic" in2="effect1_dropShadow_1801_4330" result="shape"/>
</filter>
</defs>
</svg>
