<svg width="56" height="56" viewBox="0 0 56 56" fill="none" xmlns="http://www.w3.org/2000/svg">
<g filter="url(#filter0_d_1801_4333)">
<circle cx="28" cy="24" r="18" fill="#F2FFDC"/>
</g>
<path d="M34.8967 29.2009C33.996 27.648 32.5978 26.4444 30.9282 25.7847C31.7476 25.1701 32.3529 24.3133 32.6583 23.3356C32.9637 22.3578 32.9538 21.3088 32.6299 20.3371C32.3059 19.3653 31.6845 18.5201 30.8535 17.9212C30.0226 17.3223 29.0242 17 27.9999 17C26.9756 17 25.9773 17.3223 25.1463 17.9212C24.3154 18.5201 23.6939 19.3653 23.37 20.3371C23.0461 21.3088 23.0361 22.3578 23.3415 23.3356C23.6469 24.3133 24.2522 25.1701 25.0717 25.7847C23.4021 26.4444 22.0038 27.648 21.1032 29.2009C21.001 29.3781 20.9733 29.5885 21.0263 29.786C21.0793 29.9835 21.2086 30.1519 21.3857 30.2541C21.5628 30.3563 21.7733 30.3839 21.9708 30.3309C22.1683 30.2779 22.3367 30.1487 22.4389 29.9715C23.0025 28.9954 23.8131 28.1848 24.7893 27.6213C25.7655 27.0577 26.8728 26.761 27.9999 26.761C29.1271 26.761 30.2344 27.0577 31.2106 27.6213C32.1867 28.1848 32.9974 28.9954 33.561 29.9715C33.6292 30.0883 33.7266 30.1853 33.8437 30.2529C33.9609 30.3204 34.0936 30.3563 34.2288 30.3568C34.3642 30.3579 34.4973 30.3224 34.6141 30.2541C34.7019 30.2035 34.7788 30.1362 34.8405 30.0559C34.9022 29.9756 34.9474 29.8839 34.9737 29.7861C34.9999 29.6883 35.0066 29.5863 34.9934 29.4859C34.9802 29.3854 34.9473 29.2886 34.8967 29.2009ZM24.6607 21.8804C24.6607 21.2199 24.8566 20.5743 25.2235 20.0252C25.5904 19.4761 26.1119 19.0481 26.7221 18.7954C27.3322 18.5426 28.0036 18.4765 28.6514 18.6053C29.2991 18.7342 29.8941 19.0522 30.3611 19.5192C30.8281 19.9862 31.1461 20.5812 31.275 21.2289C31.4038 21.8767 31.3377 22.5481 31.0849 23.1582C30.8322 23.7684 30.4042 24.2899 29.8551 24.6568C29.306 25.0237 28.6604 25.2196 27.9999 25.2196C27.1143 25.2196 26.265 24.8678 25.6387 24.2416C25.0125 23.6153 24.6607 22.766 24.6607 21.8804Z" fill="#474A54"/>
<defs>
<filter id="filter0_d_1801_4333" x="0" y="0" width="56" height="56" filterUnits="userSpaceOnUse" color-interpolation-filters="sRGB">
<feFlood flood-opacity="0" result="BackgroundImageFix"/>
<feColorMatrix in="SourceAlpha" type="matrix" values="0 0 0 0 0 0 0 0 0 0 0 0 0 0 0 0 0 0 127 0" result="hardAlpha"/>
<feOffset dy="4"/>
<feGaussianBlur stdDeviation="5"/>
<feComposite in2="hardAlpha" operator="out"/>
<feColorMatrix type="matrix" values="0 0 0 0 0 0 0 0 0 0 0 0 0 0 0 0 0 0 0.1 0"/>
<feBlend mode="normal" in2="BackgroundImageFix" result="effect1_dropShadow_1801_4333"/>
<feBlend mode="normal" in="SourceGraphic" in2="effect1_dropShadow_1801_4333" result="shape"/>
</filter>
</defs>
</svg>
