<svg width="80" height="80" viewBox="0 0 80 80" fill="none" xmlns="http://www.w3.org/2000/svg">
<circle cx="40" cy="40" r="40" fill="#E5218F"/>
<path d="M39.5117 24C29.2927 24 21 31.5889 21 38.143C21 42.7194 24.6882 46.8588 29.5981 49.3425C28.9168 51.4582 27.5543 54.4018 24.8527 57.0464C24.5003 57.3914 24.4768 57.5523 24.5708 57.7593C24.7587 58.1503 25.2051 57.9893 26.0038 57.8053C30.2559 56.8164 35.1187 53.4589 37.4679 51.6882C38.1492 51.7571 38.8305 51.8031 39.4882 51.8031C48.6266 51.8031 58 45.2031 58 38.143C58.0234 31.7269 49.7542 24 39.5117 24ZM31.8768 42.3974C29.9035 42.3974 28.3295 40.8337 28.3295 38.9249C28.3295 37.0162 29.927 35.4524 31.8768 35.4524C33.8266 35.4524 35.4241 37.0162 35.4241 38.9249C35.4006 40.8337 33.8266 42.3974 31.8768 42.3974ZM39.9346 42.3974C37.9847 42.3974 36.3873 40.8337 36.3873 38.9249C36.3873 37.0162 37.9847 35.4524 39.9346 35.4524C41.8844 35.4524 43.4819 37.0162 43.4819 38.9249C43.4584 40.8337 41.8844 42.3974 39.9346 42.3974ZM47.8044 42.3974C45.8546 42.3974 44.2571 40.8337 44.2571 38.9249C44.2571 37.0162 45.8546 35.4524 47.8044 35.4524C49.7542 35.4524 51.3517 37.0162 51.3517 38.9249C51.3517 40.8337 49.7542 42.3974 47.8044 42.3974Z" fill="white"/>
</svg>
